<svg id="visual" viewBox="0 0 900 600" width="900" height="600" xmlns="http://www.w3.org/2000/svg" xmlns:xlink="http://www.w3.org/1999/xlink" version="1.1"><g stroke-width="1" stroke-linejoin="bevel"><path d="M470 294L390 232L422 321Z" fill="#00335e" stroke="#00335e"></path><path d="M334 376L414 371L422 321Z" fill="#011f35" stroke="#011f35"></path><path d="M422 321L475 411L470 294Z" fill="#00335e" stroke="#00335e"></path><path d="M390 232L311 301L422 321Z" fill="#1d4d97" stroke="#1d4d97"></path><path d="M470 294L508 176L390 232Z" fill="#011f35" stroke="#011f35"></path><path d="M369 106L318 196L390 232Z" fill="#002c50" stroke="#002c50"></path><path d="M390 232L318 196L311 301Z" fill="#002542" stroke="#002542"></path><path d="M311 301L334 376L422 321Z" fill="#031828" stroke="#031828"></path><path d="M477 501L475 411L399 521Z" fill="#002c50" stroke="#002c50"></path><path d="M414 371L475 411L422 321Z" fill="#002c50" stroke="#002c50"></path><path d="M470 294L585 238L508 176Z" fill="#013a6c" stroke="#013a6c"></path><path d="M610 278L585 238L470 294Z" fill="#1d4d97" stroke="#1d4d97"></path><path d="M508 176L369 106L390 232Z" fill="#00101c" stroke="#00101c"></path><path d="M369 106L314 128L318 196Z" fill="#013a6c" stroke="#013a6c"></path><path d="M318 196L224 267L311 301Z" fill="#00335e" stroke="#00335e"></path><path d="M602 410L610 278L470 294Z" fill="#00101c" stroke="#00101c"></path><path d="M585 104L486 86L508 176Z" fill="#00335e" stroke="#00335e"></path><path d="M508 176L486 86L369 106Z" fill="#2953a6" stroke="#2953a6"></path><path d="M230 160L224 267L318 196Z" fill="#00335e" stroke="#00335e"></path><path d="M311 301L200 409L334 376Z" fill="#013a6c" stroke="#013a6c"></path><path d="M314 128L230 160L318 196Z" fill="#114789" stroke="#114789"></path><path d="M225 127L230 160L314 128Z" fill="#013a6c" stroke="#013a6c"></path><path d="M475 411L602 410L470 294Z" fill="#031828" stroke="#031828"></path><path d="M697 201L585 104L585 238Z" fill="#114789" stroke="#114789"></path><path d="M585 238L585 104L508 176Z" fill="#031828" stroke="#031828"></path><path d="M399 521L475 411L414 371Z" fill="#1d4d97" stroke="#1d4d97"></path><path d="M475 411L591 480L602 410Z" fill="#013a6c" stroke="#013a6c"></path><path d="M602 410L668 301L610 278Z" fill="#002c50" stroke="#002c50"></path><path d="M610 278L697 201L585 238Z" fill="#013a6c" stroke="#013a6c"></path><path d="M266 0L225 127L314 128Z" fill="#002542" stroke="#002542"></path><path d="M119 339L200 409L224 267Z" fill="#002c50" stroke="#002c50"></path><path d="M266 0L314 128L369 106Z" fill="#00335e" stroke="#00335e"></path><path d="M334 376L399 521L414 371Z" fill="#2953a6" stroke="#2953a6"></path><path d="M297 501L399 521L334 376Z" fill="#011f35" stroke="#011f35"></path><path d="M200 409L297 501L334 376Z" fill="#2953a6" stroke="#2953a6"></path><path d="M138 387L200 409L119 339Z" fill="#002c50" stroke="#002c50"></path><path d="M224 267L200 409L311 301Z" fill="#114789" stroke="#114789"></path><path d="M477 501L591 480L475 411Z" fill="#031828" stroke="#031828"></path><path d="M602 410L663 416L668 301Z" fill="#2953a6" stroke="#2953a6"></path><path d="M567 600L591 480L477 501Z" fill="#1d4d97" stroke="#1d4d97"></path><path d="M497 0L425 0L486 86Z" fill="#114789" stroke="#114789"></path><path d="M486 86L425 0L369 106Z" fill="#011f35" stroke="#011f35"></path><path d="M585 104L497 0L486 86Z" fill="#002c50" stroke="#002c50"></path><path d="M591 480L663 416L602 410Z" fill="#00101c" stroke="#00101c"></path><path d="M794 171L697 201L814 304Z" fill="#002542" stroke="#002542"></path><path d="M668 301L697 201L610 278Z" fill="#00335e" stroke="#00335e"></path><path d="M585 104L608 0L497 0Z" fill="#031828" stroke="#031828"></path><path d="M119 339L224 267L81 161Z" fill="#114789" stroke="#114789"></path><path d="M200 409L163 499L297 501Z" fill="#07407b" stroke="#07407b"></path><path d="M425 0L266 0L369 106Z" fill="#013a6c" stroke="#013a6c"></path><path d="M81 161L224 267L230 160Z" fill="#2953a6" stroke="#2953a6"></path><path d="M81 161L230 160L225 127Z" fill="#00335e" stroke="#00335e"></path><path d="M680 0L608 0L585 104Z" fill="#2953a6" stroke="#2953a6"></path><path d="M372 600L471 600L399 521Z" fill="#07407b" stroke="#07407b"></path><path d="M399 521L471 600L477 501Z" fill="#2953a6" stroke="#2953a6"></path><path d="M591 480L678 535L663 416Z" fill="#1d4d97" stroke="#1d4d97"></path><path d="M295 600L372 600L297 501Z" fill="#002542" stroke="#002542"></path><path d="M297 501L372 600L399 521Z" fill="#1d4d97" stroke="#1d4d97"></path><path d="M0 403L137 465L138 387Z" fill="#114789" stroke="#114789"></path><path d="M138 387L137 465L200 409Z" fill="#00335e" stroke="#00335e"></path><path d="M137 465L163 499L200 409Z" fill="#002542" stroke="#002542"></path><path d="M163 499L295 600L297 501Z" fill="#031828" stroke="#031828"></path><path d="M471 600L567 600L477 501Z" fill="#002c50" stroke="#002c50"></path><path d="M82 60L81 161L225 127Z" fill="#031828" stroke="#031828"></path><path d="M119 339L0 403L138 387Z" fill="#013a6c" stroke="#013a6c"></path><path d="M697 201L727 68L585 104Z" fill="#002542" stroke="#002542"></path><path d="M794 171L727 68L697 201Z" fill="#00335e" stroke="#00335e"></path><path d="M567 600L678 535L591 480Z" fill="#013a6c" stroke="#013a6c"></path><path d="M814 304L697 201L668 301Z" fill="#002c50" stroke="#002c50"></path><path d="M727 68L680 0L585 104Z" fill="#011f35" stroke="#011f35"></path><path d="M266 0L164 0L225 127Z" fill="#011f35" stroke="#011f35"></path><path d="M814 304L668 301L808 369Z" fill="#031828" stroke="#031828"></path><path d="M808 369L668 301L663 416Z" fill="#031828" stroke="#031828"></path><path d="M791 524L808 369L663 416Z" fill="#002c50" stroke="#002c50"></path><path d="M164 0L82 60L225 127Z" fill="#00335e" stroke="#00335e"></path><path d="M794 171L779 65L727 68Z" fill="#2953a6" stroke="#2953a6"></path><path d="M727 68L771 0L680 0Z" fill="#00335e" stroke="#00335e"></path><path d="M771 0L779 65L900 0Z" fill="#2953a6" stroke="#2953a6"></path><path d="M85 600L160 600L163 499Z" fill="#2953a6" stroke="#2953a6"></path><path d="M163 499L160 600L295 600Z" fill="#1d4d97" stroke="#1d4d97"></path><path d="M85 600L163 499L137 465Z" fill="#031828" stroke="#031828"></path><path d="M0 183L0 270L81 161Z" fill="#031828" stroke="#031828"></path><path d="M81 161L0 270L119 339Z" fill="#114789" stroke="#114789"></path><path d="M0 69L0 183L81 161Z" fill="#07407b" stroke="#07407b"></path><path d="M164 0L83 0L82 60Z" fill="#002c50" stroke="#002c50"></path><path d="M82 60L0 69L81 161Z" fill="#1d4d97" stroke="#1d4d97"></path><path d="M900 99L779 65L794 171Z" fill="#013a6c" stroke="#013a6c"></path><path d="M779 65L771 0L727 68Z" fill="#011f35" stroke="#011f35"></path><path d="M0 270L0 403L119 339Z" fill="#00335e" stroke="#00335e"></path><path d="M737 600L791 524L678 535Z" fill="#002c50" stroke="#002c50"></path><path d="M678 535L791 524L663 416Z" fill="#002c50" stroke="#002c50"></path><path d="M567 600L737 600L678 535Z" fill="#00335e" stroke="#00335e"></path><path d="M0 0L0 69L82 60Z" fill="#031828" stroke="#031828"></path><path d="M0 509L85 600L137 465Z" fill="#07407b" stroke="#07407b"></path><path d="M808 369L900 337L814 304Z" fill="#2953a6" stroke="#2953a6"></path><path d="M814 304L900 194L794 171Z" fill="#00101c" stroke="#00101c"></path><path d="M900 435L900 337L808 369Z" fill="#2953a6" stroke="#2953a6"></path><path d="M900 337L900 194L814 304Z" fill="#00101c" stroke="#00101c"></path><path d="M0 403L0 509L137 465Z" fill="#114789" stroke="#114789"></path><path d="M900 502L900 435L791 524Z" fill="#002c50" stroke="#002c50"></path><path d="M791 524L900 435L808 369Z" fill="#002542" stroke="#002542"></path><path d="M83 0L0 0L82 60Z" fill="#00335e" stroke="#00335e"></path><path d="M900 194L900 99L794 171Z" fill="#114789" stroke="#114789"></path><path d="M737 600L837 600L791 524Z" fill="#07407b" stroke="#07407b"></path><path d="M837 600L900 502L791 524Z" fill="#07407b" stroke="#07407b"></path><path d="M0 509L0 600L85 600Z" fill="#002542" stroke="#002542"></path><path d="M900 99L900 0L779 65Z" fill="#013a6c" stroke="#013a6c"></path><path d="M837 600L900 600L900 502Z" fill="#031828" stroke="#031828"></path></g></svg>